<svg width="148" height="44" viewBox="0 0 148 44" fill="none" xmlns="http://www.w3.org/2000/svg">
<path d="M37.944 13.6002C37.944 6.25704 31.9907 0.303711 24.6475 0.303711H0.0563965V20.8699H37.944V13.6002Z" fill="white"/>
<path d="M37.9441 34.4649L10.6679 31.0209H37.943V23.1292H7.94717C7.32625 23.1403 4.57993 23.256 2.36662 25.4404C-0.428657 28.2023 -0.00023973 31.9267 0.0565116 32.3607L27.3305 35.8047H0.0565116V43.6965H30.0524C30.6744 43.6854 33.4196 43.5696 35.6318 41.3853C38.4282 38.6245 38.0009 34.9 37.943 34.4649H37.9441Z" fill="white"/>
<path d="M55.062 17V3.878H61.38C62.904 3.878 64.176 4.154 65.196 4.706C66.216 5.246 66.984 6.008 67.5 6.992C68.016 7.976 68.274 9.128 68.274 10.448C68.274 11.504 68.112 12.446 67.788 13.274C67.476 14.09 67.02 14.774 66.42 15.326C65.82 15.878 65.094 16.298 64.242 16.586C63.39 16.862 62.436 17 61.38 17H55.062ZM58.194 14.552H60.768C61.524 14.552 62.172 14.462 62.712 14.282C63.264 14.09 63.714 13.814 64.062 13.454C64.422 13.094 64.686 12.656 64.854 12.14C65.022 11.624 65.106 11.042 65.106 10.394C65.106 9.41 64.926 8.624 64.566 8.036C64.206 7.436 63.702 6.998 63.054 6.722C62.406 6.446 61.644 6.308 60.768 6.308H58.194V14.552ZM72.6358 17V6.398H68.2798V3.878H80.1778V6.398H75.7498V17H72.6358ZM87.5661 17.162C86.4021 17.162 85.3581 17.006 84.4341 16.694C83.5221 16.37 82.7481 15.914 82.1121 15.326C81.4761 14.726 80.9901 14.018 80.6541 13.202C80.3181 12.374 80.1501 11.45 80.1501 10.43C80.1501 9.422 80.3181 8.504 80.6541 7.676C80.9901 6.848 81.4761 6.14 82.1121 5.552C82.7481 4.964 83.5221 4.514 84.4341 4.202C85.3581 3.878 86.4081 3.716 87.5841 3.716C88.7361 3.716 89.7681 3.878 90.6801 4.202C91.5921 4.514 92.3661 4.964 93.0021 5.552C93.6381 6.14 94.1241 6.848 94.4601 7.676C94.7961 8.504 94.9641 9.422 94.9641 10.43C94.9641 11.45 94.7961 12.374 94.4601 13.202C94.1241 14.03 93.6321 14.738 92.9841 15.326C92.3481 15.914 91.5741 16.37 90.6621 16.694C89.7621 17.006 88.7301 17.162 87.5661 17.162ZM87.5841 14.678C88.4361 14.678 89.1741 14.516 89.7981 14.192C90.4341 13.868 90.9261 13.394 91.2741 12.77C91.6221 12.134 91.7961 11.354 91.7961 10.43C91.7961 9.734 91.6941 9.128 91.4901 8.612C91.2981 8.084 91.0161 7.64 90.6441 7.28C90.2721 6.92 89.8281 6.65 89.3121 6.47C88.7961 6.29 88.2201 6.2 87.5841 6.2C86.7201 6.2 85.9701 6.362 85.3341 6.686C84.6981 6.998 84.2061 7.472 83.8581 8.108C83.5101 8.732 83.3361 9.506 83.3361 10.43C83.3361 11.126 83.4321 11.738 83.6241 12.266C83.8281 12.794 84.1161 13.238 84.4881 13.598C84.8601 13.946 85.3041 14.216 85.8201 14.408C86.3481 14.588 86.9361 14.678 87.5841 14.678ZM96.5112 17V3.878H104.251C104.947 3.878 105.595 3.95 106.195 4.094C106.795 4.226 107.317 4.442 107.761 4.742C108.217 5.042 108.565 5.438 108.805 5.93C109.057 6.422 109.183 7.028 109.183 7.748C109.183 8.528 108.973 9.212 108.553 9.8C108.145 10.376 107.557 10.76 106.789 10.952V11.078C107.509 11.198 108.031 11.468 108.355 11.888C108.691 12.308 108.859 12.896 108.859 13.652V15.452C108.859 15.704 108.865 15.962 108.877 16.226C108.901 16.478 108.973 16.736 109.093 17H105.925C105.853 16.832 105.799 16.622 105.763 16.37C105.739 16.118 105.727 15.812 105.727 15.452V14.102C105.727 13.718 105.667 13.394 105.547 13.13C105.439 12.866 105.241 12.668 104.953 12.536C104.665 12.392 104.257 12.32 103.729 12.32H99.6432V17H96.5112ZM99.6432 10.052H103.621C104.521 10.052 105.145 9.872 105.493 9.512C105.841 9.14 106.015 8.666 106.015 8.09C106.015 7.634 105.913 7.274 105.709 7.01C105.505 6.746 105.223 6.554 104.863 6.434C104.515 6.314 104.101 6.254 103.621 6.254H99.6432V10.052ZM114.636 17V12.032L109.038 3.878H112.584L116.148 9.44H116.274L119.892 3.878H123.402L117.768 12.032V17H114.636ZM60.768 39.162C59.316 39.162 58.122 38.982 57.186 38.622C56.25 38.25 55.554 37.734 55.098 37.074C54.642 36.414 54.408 35.664 54.396 34.824H57.672C57.696 35.28 57.828 35.67 58.068 35.994C58.308 36.318 58.662 36.57 59.13 36.75C59.61 36.918 60.192 37.002 60.876 37.002C61.812 37.002 62.514 36.858 62.982 36.57C63.45 36.282 63.684 35.88 63.684 35.364C63.684 35.04 63.618 34.782 63.486 34.59C63.366 34.386 63.174 34.23 62.91 34.122C62.646 34.002 62.304 33.906 61.884 33.834C61.476 33.762 60.978 33.69 60.39 33.618C59.466 33.51 58.65 33.366 57.942 33.186C57.234 33.006 56.64 32.772 56.16 32.484C55.692 32.196 55.338 31.83 55.098 31.386C54.858 30.942 54.738 30.396 54.738 29.748C54.738 28.884 54.972 28.158 55.44 27.57C55.92 26.97 56.604 26.514 57.492 26.202C58.38 25.878 59.436 25.716 60.66 25.716C61.8 25.716 62.79 25.872 63.63 26.184C64.47 26.496 65.13 26.946 65.61 27.534C66.09 28.122 66.366 28.836 66.438 29.676H63.27C63.222 29.244 63.078 28.896 62.838 28.632C62.61 28.368 62.298 28.176 61.902 28.056C61.518 27.924 61.062 27.858 60.534 27.858C59.994 27.858 59.526 27.924 59.13 28.056C58.746 28.176 58.452 28.35 58.248 28.578C58.056 28.806 57.96 29.082 57.96 29.406C57.96 29.778 58.062 30.066 58.266 30.27C58.47 30.462 58.806 30.612 59.274 30.72C59.754 30.816 60.402 30.912 61.218 31.008C62.166 31.128 62.994 31.272 63.702 31.44C64.422 31.608 65.016 31.842 65.484 32.142C65.964 32.43 66.324 32.814 66.564 33.294C66.804 33.774 66.924 34.38 66.924 35.112C66.924 35.952 66.684 36.678 66.204 37.29C65.736 37.89 65.046 38.352 64.134 38.676C63.222 39 62.1 39.162 60.768 39.162ZM71.7744 39V28.398H67.4184V25.878H79.3164V28.398H74.8884V39H71.7744ZM86.7942 39.162C85.5102 39.162 84.3942 38.97 83.4462 38.586C82.4982 38.19 81.7602 37.566 81.2322 36.714C80.7042 35.862 80.4402 34.752 80.4402 33.384V25.878H83.5182V33.384C83.5182 34.044 83.6202 34.614 83.8242 35.094C84.0402 35.574 84.3822 35.946 84.8502 36.21C85.3302 36.462 85.9782 36.588 86.7942 36.588C87.5022 36.588 88.0962 36.486 88.5762 36.282C89.0682 36.066 89.4402 35.724 89.6922 35.256C89.9442 34.776 90.0702 34.152 90.0702 33.384V25.878H93.1662V33.384C93.1662 34.596 92.9382 35.64 92.4822 36.516C92.0262 37.38 91.3242 38.04 90.3762 38.496C89.4402 38.94 88.2462 39.162 86.7942 39.162ZM95.0874 39V25.878H101.405C102.929 25.878 104.201 26.154 105.221 26.706C106.241 27.246 107.009 28.008 107.525 28.992C108.041 29.976 108.299 31.128 108.299 32.448C108.299 33.504 108.137 34.446 107.813 35.274C107.501 36.09 107.045 36.774 106.445 37.326C105.845 37.878 105.119 38.298 104.267 38.586C103.415 38.862 102.461 39 101.405 39H95.0874ZM98.2194 36.552H100.793C101.549 36.552 102.197 36.462 102.737 36.282C103.289 36.09 103.739 35.814 104.087 35.454C104.447 35.094 104.711 34.656 104.879 34.14C105.047 33.624 105.131 33.042 105.131 32.394C105.131 31.41 104.951 30.624 104.591 30.036C104.231 29.436 103.727 28.998 103.079 28.722C102.431 28.446 101.669 28.308 100.793 28.308H98.2194V36.552ZM109.871 39V25.878H113.003V39H109.871ZM121.966 39.162C120.802 39.162 119.758 39.006 118.834 38.694C117.922 38.37 117.148 37.914 116.512 37.326C115.876 36.726 115.39 36.018 115.054 35.202C114.718 34.374 114.55 33.45 114.55 32.43C114.55 31.422 114.718 30.504 115.054 29.676C115.39 28.848 115.876 28.14 116.512 27.552C117.148 26.964 117.922 26.514 118.834 26.202C119.758 25.878 120.808 25.716 121.984 25.716C123.136 25.716 124.168 25.878 125.08 26.202C125.992 26.514 126.766 26.964 127.402 27.552C128.038 28.14 128.524 28.848 128.86 29.676C129.196 30.504 129.364 31.422 129.364 32.43C129.364 33.45 129.196 34.374 128.86 35.202C128.524 36.03 128.032 36.738 127.384 37.326C126.748 37.914 125.974 38.37 125.062 38.694C124.162 39.006 123.13 39.162 121.966 39.162ZM121.984 36.678C122.836 36.678 123.574 36.516 124.198 36.192C124.834 35.868 125.326 35.394 125.674 34.77C126.022 34.134 126.196 33.354 126.196 32.43C126.196 31.734 126.094 31.128 125.89 30.612C125.698 30.084 125.416 29.64 125.044 29.28C124.672 28.92 124.228 28.65 123.712 28.47C123.196 28.29 122.62 28.2 121.984 28.2C121.12 28.2 120.37 28.362 119.734 28.686C119.098 28.998 118.606 29.472 118.258 30.108C117.91 30.732 117.736 31.506 117.736 32.43C117.736 33.126 117.832 33.738 118.024 34.266C118.228 34.794 118.516 35.238 118.888 35.598C119.26 35.946 119.704 36.216 120.22 36.408C120.748 36.588 121.336 36.678 121.984 36.678ZM136.512 39.162C135.06 39.162 133.866 38.982 132.93 38.622C131.994 38.25 131.298 37.734 130.842 37.074C130.386 36.414 130.152 35.664 130.14 34.824H133.416C133.44 35.28 133.572 35.67 133.812 35.994C134.052 36.318 134.406 36.57 134.874 36.75C135.354 36.918 135.936 37.002 136.62 37.002C137.556 37.002 138.258 36.858 138.726 36.57C139.194 36.282 139.428 35.88 139.428 35.364C139.428 35.04 139.362 34.782 139.23 34.59C139.11 34.386 138.918 34.23 138.654 34.122C138.39 34.002 138.048 33.906 137.628 33.834C137.22 33.762 136.722 33.69 136.134 33.618C135.21 33.51 134.394 33.366 133.686 33.186C132.978 33.006 132.384 32.772 131.904 32.484C131.436 32.196 131.082 31.83 130.842 31.386C130.602 30.942 130.482 30.396 130.482 29.748C130.482 28.884 130.716 28.158 131.184 27.57C131.664 26.97 132.348 26.514 133.236 26.202C134.124 25.878 135.18 25.716 136.404 25.716C137.544 25.716 138.534 25.872 139.374 26.184C140.214 26.496 140.874 26.946 141.354 27.534C141.834 28.122 142.11 28.836 142.182 29.676H139.014C138.966 29.244 138.822 28.896 138.582 28.632C138.354 28.368 138.042 28.176 137.646 28.056C137.262 27.924 136.806 27.858 136.278 27.858C135.738 27.858 135.27 27.924 134.874 28.056C134.49 28.176 134.196 28.35 133.992 28.578C133.8 28.806 133.704 29.082 133.704 29.406C133.704 29.778 133.806 30.066 134.01 30.27C134.214 30.462 134.55 30.612 135.018 30.72C135.498 30.816 136.146 30.912 136.962 31.008C137.91 31.128 138.738 31.272 139.446 31.44C140.166 31.608 140.76 31.842 141.228 32.142C141.708 32.43 142.068 32.814 142.308 33.294C142.548 33.774 142.668 34.38 142.668 35.112C142.668 35.952 142.428 36.678 141.948 37.29C141.48 37.89 140.79 38.352 139.878 38.676C138.966 39 137.844 39.162 136.512 39.162ZM143.734 39V36.57H146.704V39H143.734Z" fill="url(#paint0_linear_1_80)"/>
<defs>
<linearGradient id="paint0_linear_1_80" x1="85.1827" y1="4.125" x2="107.311" y2="38.217" gradientUnits="userSpaceOnUse">
<stop stop-color="white"/>
<stop offset="1" stop-color="#C4C4C4"/>
</linearGradient>
</defs>
</svg>
